<?xml version="1.0" encoding="UTF-8"?>
<svg version="1.1" xmlns="http://www.w3.org/2000/svg" width="110" height="110">
<path d="M0 0 C1.04414062 0.6496875 2.08828125 1.299375 3.1640625 1.96875 C4.22367188 2.6184375 5.28328125 3.268125 6.375 3.9375 C7.17164062 4.4428125 7.96828125 4.948125 8.7890625 5.46875 C8.4590625 6.12875 8.1290625 6.78875 7.7890625 7.46875 C7.1290625 7.46875 6.4690625 7.46875 5.7890625 7.46875 C6.1190625 10.10875 6.4490625 12.74875 6.7890625 15.46875 C5.7990625 15.79875 4.8090625 16.12875 3.7890625 16.46875 C3.23341506 18.46254375 2.68876622 20.46222372 2.265625 22.48828125 C1.7890625 24.46875 1.7890625 24.46875 0.6015625 26.46875 C-1.08676218 30.62462614 0.41742183 35.35382798 1.7890625 39.46875 C0.609375 41.58984375 0.609375 41.58984375 -1.0859375 43.90625 C-3.16587868 46.76495985 -4.58829945 48.96441531 -5.2109375 52.46875 C-6.2009375 52.46875 -7.1909375 52.46875 -8.2109375 52.46875 C-8.59185547 51.56382813 -8.59185547 51.56382813 -8.98046875 50.640625 C-9.32464844 49.84140625 -9.66882812 49.0421875 -10.0234375 48.21875 C-10.35988281 47.42984375 -10.69632813 46.6409375 -11.04296875 45.828125 C-12.12124275 43.41026806 -12.12124275 43.41026806 -13.9140625 41.46484375 C-15.2109375 39.46875 -15.2109375 39.46875 -14.92578125 37.20703125 C-14.54099609 36.00626953 -14.54099609 36.00626953 -14.1484375 34.78125 C-12.88434404 29.6416125 -13.85419107 27.08653284 -16.2421875 22.49609375 C-18.17825192 18.44441055 -17.44340434 15.25332557 -16.2109375 11.09375 C-15.8809375 10.2275 -15.5509375 9.36125 -15.2109375 8.46875 C-17.1909375 7.14875 -19.1709375 5.82875 -21.2109375 4.46875 C-19.0134463 2.2712588 -17.3207796 1.5136854 -14.4609375 0.34375 C-13.62046875 -0.00945313 -12.78 -0.36265625 -11.9140625 -0.7265625 C-7.30830385 -2.09764094 -4.37525392 -2.08649579 0 0 Z M2.7890625 8.46875 C2.1075802 10.36054203 2.1075802 10.36054203 1.7890625 12.46875 C2.4490625 13.12875 3.1090625 13.78875 3.7890625 14.46875 C4.1190625 12.48875 4.4490625 10.50875 4.7890625 8.46875 C4.1290625 8.46875 3.4690625 8.46875 2.7890625 8.46875 Z M-12.5859375 12.21875 C-14.24686631 14.51849759 -14.85377452 15.69193362 -15.2109375 18.46875 C-14.47576822 20.87628252 -14.47576822 20.87628252 -13.2734375 23.21875 C-12.89316406 24.01796875 -12.51289062 24.8171875 -12.12109375 25.640625 C-11.67056641 26.54554687 -11.67056641 26.54554687 -11.2109375 27.46875 C-10.2209375 27.46875 -9.2309375 27.46875 -8.2109375 27.46875 C-8.5409375 25.81875 -8.8709375 24.16875 -9.2109375 22.46875 C-10.2009375 22.13875 -11.1909375 21.80875 -12.2109375 21.46875 C-11.5509375 20.14875 -10.8909375 18.82875 -10.2109375 17.46875 C-9.5509375 17.46875 -8.8909375 17.46875 -8.2109375 17.46875 C-7.5509375 18.12875 -6.8909375 18.78875 -6.2109375 19.46875 C-5.8809375 18.47875 -5.5509375 17.48875 -5.2109375 16.46875 C-4.2209375 16.13875 -3.2309375 15.80875 -2.2109375 15.46875 C-2.5859375 18.40625 -2.5859375 18.40625 -3.2109375 21.46875 C-4.2009375 21.96375 -4.2009375 21.96375 -5.2109375 22.46875 C-5.2109375 24.11875 -5.2109375 25.76875 -5.2109375 27.46875 C-1.98944918 26.74784864 -1.98944918 26.74784864 -0.5234375 23.78125 C0.86692106 20.27224983 1.35566933 18.19216634 0.7890625 14.46875 C-0.64755061 11.94868156 -0.64755061 11.94868156 -3.2109375 10.46875 C-7.23152913 9.89437977 -9.27462076 9.7788324 -12.5859375 12.21875 Z M-8.2109375 37.46875 C-8.2109375 38.12875 -8.2109375 38.78875 -8.2109375 39.46875 C-7.5509375 39.46875 -6.8909375 39.46875 -6.2109375 39.46875 C-6.2109375 38.80875 -6.2109375 38.14875 -6.2109375 37.46875 C-6.8709375 37.46875 -7.5309375 37.46875 -8.2109375 37.46875 Z " fill="#2D1A67" transform="translate(61.2109375,19.53125)"/>
<path d="M0 0 C13.53 0 27.06 0 41 0 C40 4 40 4 39 7 C38.34 7 37.68 7 37 7 C36.505 5.515 36.505 5.515 36 4 C35.67 4.99 35.34 5.98 35 7 C34.34 7 33.68 7 33 7 C33 6.34 33 5.68 33 5 C32.34 5 31.68 5 31 5 C31 7.31 31 9.62 31 12 C25.06 11.67 19.12 11.34 13 11 C13 9.68 13 8.36 13 7 C12.01 7 11.02 7 10 7 C10.66 7.33 11.32 7.66 12 8 C12 8.99 12 9.98 12 11 C7.38 11 2.76 11 -2 11 C-2 10.01 -2 9.02 -2 8 C-1.01 7.67 -0.02 7.34 1 7 C0.34 7 -0.32 7 -1 7 C-0.67 4.69 -0.34 2.38 0 0 Z M22 6 C21.34 6.66 20.68 7.32 20 8 C21.32 7.67 22.64 7.34 24 7 C23.34 6.67 22.68 6.34 22 6 Z " fill="#2E1E64" transform="translate(51,73)"/>
<path d="M0 0 C9.9 0 19.8 0 30 0 C30 3.63 30 7.26 30 11 C22.74 11 15.48 11 8 11 C8 9.68 8 8.36 8 7 C5.36 7 2.72 7 0 7 C0 4.69 0 2.38 0 0 Z M3 2 C4 4 4 4 4 4 Z M17 2 C18 4 18 4 18 4 Z M26 5 C26 5.66 26 6.32 26 7 C25.030625 6.814375 24.06125 6.62875 23.0625 6.4375 C18.61586794 5.78143953 14.41915017 6.34865134 10 7 C10 7.33 10 7.66 10 8 C19.03378934 9.07531017 19.03378934 9.07531017 28 8 C28 7.01 28 6.02 28 5 C27.34 5 26.68 5 26 5 Z " fill="#352767" transform="translate(18,73)"/>
<path d="M0 0 C3.3 0 6.6 0 10 0 C11.88936853 3.25542276 13.34230247 6.27649979 14 10 C12.86611004 12.76840303 11.45909034 14.69883157 9.55078125 16.9921875 C7.96124538 19.050176 7.42643478 20.46413452 7 23 C6.01 23 5.02 23 4 23 C3.74605469 22.39671875 3.49210937 21.7934375 3.23046875 21.171875 C2.88628906 20.37265625 2.54210938 19.5734375 2.1875 18.75 C1.85105469 17.96109375 1.51460937 17.1721875 1.16796875 16.359375 C0.095321 13.94017421 0.095321 13.94017421 -1.71875 12.03125 C-3 10 -3 10 -2.63671875 7.421875 C-2.32347656 6.54015625 -2.01023438 5.6584375 -1.6875 4.75 C-1.22923828 3.41195312 -1.22923828 3.41195312 -0.76171875 2.046875 C-0.51035156 1.37140625 -0.25898437 0.6959375 0 0 Z M4 8 C4 8.66 4 9.32 4 10 C4.66 10 5.32 10 6 10 C6 9.34 6 8.68 6 8 C5.34 8 4.68 8 4 8 Z " fill="#2D1968" transform="translate(49,49)"/>
<path d="M0 0 C2.74873421 2.99126958 3.20053759 4.23347015 3.125 8.3125 C1.77737498 12.73652153 0.43146644 17.00603356 -2.875 20.3125 C-5.4765625 20.2890625 -5.4765625 20.2890625 -8.5 19.9375 C-9.50289062 19.82664062 -10.50578125 19.71578125 -11.5390625 19.6015625 C-12.69535156 19.45847656 -12.69535156 19.45847656 -13.875 19.3125 C-16.98834644 13.05800938 -18.84673802 8.58814728 -17.25 1.5625 C-15.875 -0.6875 -15.875 -0.6875 -13.1875 -2.0625 C-8.09513021 -3.02332449 -4.49392239 -2.63773706 0 0 Z M-13.25 2.0625 C-14.91092881 4.36224759 -15.51783702 5.53568362 -15.875 8.3125 C-15.13983072 10.72003252 -15.13983072 10.72003252 -13.9375 13.0625 C-13.55722656 13.86171875 -13.17695312 14.6609375 -12.78515625 15.484375 C-12.33462891 16.38929687 -12.33462891 16.38929687 -11.875 17.3125 C-10.885 17.3125 -9.895 17.3125 -8.875 17.3125 C-9.205 15.6625 -9.535 14.0125 -9.875 12.3125 C-10.865 11.9825 -11.855 11.6525 -12.875 11.3125 C-12.215 9.9925 -11.555 8.6725 -10.875 7.3125 C-10.215 7.3125 -9.555 7.3125 -8.875 7.3125 C-8.215 7.9725 -7.555 8.6325 -6.875 9.3125 C-6.545 8.3225 -6.215 7.3325 -5.875 6.3125 C-4.885 5.9825 -3.895 5.6525 -2.875 5.3125 C-3.25 8.25 -3.25 8.25 -3.875 11.3125 C-4.865 11.8075 -4.865 11.8075 -5.875 12.3125 C-5.875 13.9625 -5.875 15.6125 -5.875 17.3125 C-2.65351168 16.59159864 -2.65351168 16.59159864 -1.1875 13.625 C0.20285856 10.11599983 0.69160683 8.03591634 0.125 4.3125 C-1.31161311 1.79243156 -1.31161311 1.79243156 -3.875 0.3125 C-7.89559163 -0.26187023 -9.93868326 -0.3774176 -13.25 2.0625 Z " fill="#F1D253" transform="translate(61.875,29.6875)"/>
<path d="M0 0 C3.96 0 7.92 0 12 0 C11 4 11 4 10 7 C9.34 7 8.68 7 8 7 C7.67 6.01 7.34 5.02 7 4 C6.67 4.99 6.34 5.98 6 7 C5.34 7 4.68 7 4 7 C4 6.34 4 5.68 4 5 C3.34 5 2.68 5 2 5 C2 5.66 2 6.32 2 7 C1.34 7 0.68 7 0 7 C0 4.69 0 2.38 0 0 Z " fill="#2E1D67" transform="translate(80,73)"/>
<path d="M0 0 C0.66 0.33 1.32 0.66 2 1 C1.67 1.99 1.34 2.98 1 4 C1.66 4.33 2.32 4.66 3 5 C3 5.99 3 6.98 3 8 C-1.62 8 -6.24 8 -11 8 C-11 7.01 -11 6.02 -11 5 C-10.236875 4.855625 -9.47375 4.71125 -8.6875 4.5625 C-4.79047886 3.74684441 -2.66952155 2.9237617 0 0 Z " fill="#3A3068" transform="translate(60,76)"/>
<path d="M0 0 C2.31 0 4.62 0 7 0 C7 3.63 7 7.26 7 11 C5.35 10.67 3.7 10.34 2 10 C2 9.34 2 8.68 2 8 C2.99 8 3.98 8 5 8 C5 7.01 5 6.02 5 5 C4.34 5 3.68 5 3 5 C3 5.66 3 6.32 3 7 C2.34 7 1.68 7 1 7 C0.67 4.69 0.34 2.38 0 0 Z " fill="#2F2163" transform="translate(41,73)"/>
<path d="M0 0 C1.66611905 -0.042721 3.33382885 -0.04063832 5 0 C6 1 6 1 6.125 3.5 C6 6 6 6 5 7 C3.33382885 7.04063832 1.66611905 7.042721 0 7 C0 4.69 0 2.38 0 0 Z M3 2 C4 4 4 4 4 4 Z " fill="#301C65" transform="translate(18,73)"/>
<path d="M0 0 C1.125 1.5 1.125 1.5 2 4 C1.0784498 9.19419205 -0.44472774 13.35405043 -3 18 C-4.25 16.4375 -4.25 16.4375 -5 14 C-4.05310331 12.26946466 -3.09407166 10.54216703 -2.02734375 8.8828125 C-0.43504111 5.96460006 -0.26843254 3.28829862 0 0 Z " fill="#F1D760" transform="translate(63,32)"/>
<path d="M0 0 C1.65 0.33 3.3 0.66 5 1 C5 2.98 5 4.96 5 7 C2.03 6.505 2.03 6.505 -1 6 C-0.67 4.02 -0.34 2.04 0 0 Z " fill="#3F3177" transform="translate(37,73)"/>
<path d="M0 0 C1.65 0 3.3 0 5 0 C5 2.31 5 4.62 5 7 C3.35 6.67 1.7 6.34 0 6 C0 4.02 0 2.04 0 0 Z " fill="#3F2F70" transform="translate(75,73)"/>
<path d="M0 0 C1.32 0.33 2.64 0.66 4 1 C3.34 1 2.68 1 2 1 C2.33 2.32 2.66 3.64 3 5 C0.36 5 -2.28 5 -5 5 C-5 3.68 -5 2.36 -5 1 C-2.525 1.495 -2.525 1.495 0 2 C0 1.34 0 0.68 0 0 Z " fill="#342C61" transform="translate(69,79)"/>
<path d="M0 0 C2.475 0.495 2.475 0.495 5 1 C5.33 3.64 5.66 6.28 6 9 C4.68 8.67 3.36 8.34 2 8 C2.33 6.35 2.66 4.7 3 3 C2.01 3.66 1.02 4.32 0 5 C0 3.35 0 1.7 0 0 Z " fill="#3D2F69" transform="translate(62,26)"/>
<path d="M0 0 C0.66 0 1.32 0 2 0 C2 0.66 2 1.32 2 2 C4.64 2 7.28 2 10 2 C10.33 2.66 10.66 3.32 11 4 C7.37 4 3.74 4 0 4 C0 2.68 0 1.36 0 0 Z " fill="#E7C644" transform="translate(48,45)"/>
<path d="M0 0 C1.65 0 3.3 0 5 0 C5 1.65 5 3.3 5 5 C4.34 5 3.68 5 3 5 C3 5.66 3 6.32 3 7 C2.34 7 1.68 7 1 7 C0.67 4.69 0.34 2.38 0 0 Z " fill="#29185C" transform="translate(41,73)"/>
<path d="M0 0 C0.99 0 1.98 0 3 0 C3.625 1.8125 3.625 1.8125 4 4 C3.01 5.485 3.01 5.485 2 7 C1.34 7 0.68 7 0 7 C-0.38133299 5.0085944 -0.71325582 3.00720923 -1 1 C-0.67 0.67 -0.34 0.34 0 0 Z " fill="#F0D660" transform="translate(56,35)"/>
<path d="M0 0 C0.33 0 0.66 0 1 0 C1 2.97 1 5.94 1 9 C0.01 9 -0.98 9 -2 9 C-3.125 5.25 -3.125 5.25 -2 3 C-1.34 3 -0.68 3 0 3 C0 2.01 0 1.02 0 0 Z " fill="#F3D23E" transform="translate(55,38)"/>
<path d="M0 0 C1.98 0 3.96 0 6 0 C6.33 0.99 6.66 1.98 7 3 C2.25 4.125 2.25 4.125 0 3 C0 2.01 0 1.02 0 0 Z " fill="#251653" transform="translate(56,73)"/>
<path d="M0 0 C0.33 0 0.66 0 1 0 C1.33 4.29 1.66 8.58 2 13 C1.01 13 0.02 13 -1 13 C-0.67 8.71 -0.34 4.42 0 0 Z " fill="#302263" transform="translate(54,59)"/>
<path d="M0 0 C-6.75 4 -6.75 4 -9 4 C-8 1 -8 1 -6.1875 -0.25 C-3.66056586 -1.11637742 -2.47778006 -0.88492145 0 0 Z " fill="#E6C544" transform="translate(56,28)"/>
</svg>
